<?xml version="1.0" encoding="UTF-8"?>
<svg width="512pt" height="512pt" version="1.1" viewBox="0 0 512 512" xmlns="http://www.w3.org/2000/svg">
 <path d="m437.76 284.16h-358.4c-14.336 0-25.602-11.266-25.602-25.602 0-14.336 11.266-25.602 25.602-25.602h358.4c14.336 0 25.602 11.266 25.602 25.602-0.003906 14.336-11.266 25.602-25.602 25.602zm0-128h-358.4c-14.336 0-25.602-11.266-25.602-25.602 0-14.336 11.266-25.602 25.602-25.602h358.4c14.336 0 25.602 11.266 25.602 25.602-0.003906 14.336-11.266 25.602-25.602 25.602zm-358.4 204.8h358.4c14.336 0 25.602 11.266 25.602 25.602s-11.266 25.602-25.602 25.602h-358.4c-14.336 0-25.602-11.266-25.602-25.602 0.003907-14.34 11.266-25.602 25.602-25.602z" fill="#fff" fill-rule="evenodd"/>
</svg>
