<?xml version="1.0" encoding="UTF-8"?>
<svg width="512pt" height="512pt" version="1.1" viewBox="0 0 512 512" xmlns="http://www.w3.org/2000/svg">
 <path d="m175.62 336.44c47.133 47.098 115.21 68.137 183.36 58.227 8.8438-2.3672 23.004-7.0703 26.461-19.973l11.066-57.203c1.4883-5.6055-0.23828-12.527-6.6992-15.117-12.008-3.2148-42.527-10.508-75.727-19.406-5.4375-0.003906-7.5273 3.5625-8.3711 5.5703l-13.008 39.07c-27.098-5.8516-51.598-18.789-70.625-37.766 0.019531-0.015625 0.082031 0.019531 0.12109 0-18.98-19.027-31.902-43.531-37.77-70.629l39.07-13c2.0234-0.86719 5.582-2.9297 5.5938-8.3555-8.8984-33.191-16.188-63.719-19.406-75.723-2.5938-6.457-9.5195-8.1875-15.121-6.6992l-57.203 11.062c-12.906 3.4609-17.605 17.617-19.977 26.461-9.9062 68.156 11.133 136.23 58.23 183.36h-0.23438z" fill="#08090a"/>
</svg>
