<?xml version="1.0" encoding="UTF-8"?>
<svg width="512pt" height="512pt" version="1.1" viewBox="0 0 512 512" xmlns="http://www.w3.org/2000/svg">
 <path d="m197.58 88.617c31.289 0 59.516 12.691 80.082 33.258 20.348 20.566 33.039 48.793 33.039 80.082 0 5.9062-0.4375 11.816-1.3125 17.504 10.285-5.0312 15.754-20.566 21.223-36.539 10.941-32.602 22.754-67.172 72.863-52.949 4.5938 1.3125 8.7539 3.2812 12.254 5.9062 12.473 9.4102 15.754 25.602 12.691 45.293-2.8438 17.504-10.941 38.289-21.879 59.734-20.785 40.262-52.512 82.707-78.77 108.09-12.91 12.473-21.879 32.383-27.133 53.387-7.4375 28.445-8.3164 57.766-5.0312 73.52 0.875 4.5938-2.1875 8.9727-6.5625 9.8477-4.5938 1.0938-8.9727-1.9688-9.8477-6.3438-3.7188-17.723-2.625-50.324 5.25-80.957 6.125-23.848 16.191-46.824 31.727-61.484 25.164-24.289 55.355-64.984 75.488-103.71 10.285-19.91 17.723-38.945 20.129-54.699 2.1875-13.566 0.65625-24.07-6.125-29.32-1.75-1.3125-4.1562-2.4062-6.7812-3.2812-34.789-9.6289-43.98 17.066-52.512 42.449-8.3164 24.289-16.191 47.48-41.355 49.23-5.4688 17.066-15.098 32.164-27.352 44.637-20.566 20.348-48.793 33.039-80.082 33.039-31.289 0-59.734-12.691-80.301-33.039-0.65625-0.65625-1.3125-1.3125-1.9688-2.1875-30.414 10.723-57.109 41.574-74.832 75.707-10.504 20.566-17.941 42.012-21.004 61.266-2.8438 18.16-1.75 33.914 4.1562 43.98 2.8438 4.5938 6.7812 8.0977 12.254 9.4102 25.82 7.4375 34.789-6.125 39.82-23.848 1.5312-6.125 2.8438-12.473 4.1562-18.816 5.4688-26.695 10.723-52.293 38.945-52.512 4.5938 0 8.3164 3.7188 8.5352 8.3164 0 4.5938-3.7188 8.3164-8.3164 8.3164-14.66 0.21875-18.598 19.473-22.754 39.383-1.3125 6.5625-2.8438 13.566-4.5938 19.91-7.4375 26.258-20.785 46.605-60.391 35.445-9.8477-2.625-17.066-8.7539-22.098-17.066-7.875-13.566-9.6289-33.258-6.125-55.137 3.2812-21.004 11.16-44.418 22.535-66.297 18.379-35.445 46.168-67.828 78.77-81.613-12.691-18.379-20.129-40.48-20.129-64.547 0-31.289 12.691-59.516 33.039-80.082 20.566-20.566 49.012-33.258 80.301-33.258zm124.28-28.883c-3.0625 3.5-8.5352 3.5-11.816 0.4375-3.2812-3.2812-3.5-8.5352-0.4375-11.816 8.3164-8.7539 19.254-15.316 31.727-19.691 21.879-7.4375 48.793-8.3164 74.832-2.8438 25.82 5.4688 50.98 17.285 69.359 34.57 11.16 10.504 19.691 22.973 24.727 37.414 1.5312 4.375-0.875 9.1914-5.25 10.723-4.375 1.3125-9.1914-0.875-10.504-5.25-4.1562-11.816-11.16-22.098-20.348-30.633-16.191-15.316-38.289-25.602-61.484-30.414-23.191-4.8125-46.824-4.1562-65.859 2.4062-10.066 3.2812-18.598 8.5352-24.945 15.098zm8.9727 50.543c-2.4062 3.9375-7.6562 5.0312-11.598 2.4062-3.7188-2.625-4.8125-7.6562-2.1875-11.598 10.066-15.535 26.039-24.945 43.762-29.102 15.973-3.5 33.258-2.8438 49.449 1.75 16.191 4.5938 31.289 13.348 42.668 25.383 11.816 12.91 19.473 29.758 19.473 49.668 0 4.5938-3.7188 8.5352-8.3164 8.5352-4.8125 0-8.5352-3.9375-8.5352-8.5352 0-15.535-5.6875-28.445-14.879-38.289-9.1914-9.8477-21.66-16.848-35.008-20.566-13.566-3.9375-28.008-4.5938-41.137-1.5312-13.785 3.0625-26.039 10.285-33.695 21.879zm-74.176 60.172c3.0625 3.2812 3.0625 8.5352-0.21875 11.816s-8.5352 3.0625-11.816-0.21875c-2.625-2.8438-5.25-4.1562-8.3164-5.0312-3.2812-0.65625-7.6562-0.65625-13.129-0.4375-4.5938 0.21875-8.5352-3.2812-8.7539-7.875s3.2812-8.5352 7.875-8.7539c7-0.4375 12.691-0.4375 18.16 0.875 5.9062 1.5312 10.941 4.375 16.191 9.6289zm-106.34 11.598c-3.2812 3.2812-8.5352 3.5-11.816 0.21875s-3.2812-8.5352-0.21875-11.816c5.25-5.25 10.285-8.0977 16.191-9.6289 5.4688-1.3125 11.16-1.3125 18.16-0.875 4.5938 0.21875 8.0977 4.1562 7.875 8.7539-0.21875 4.5938-4.1562 8.0977-8.7539 7.875-5.4688-0.21875-9.8477-0.21875-13.129 0.4375-3.0625 0.875-5.6875 2.1875-8.3164 5.0312zm0.4375 72.207c-2.8438-3.7188-1.9688-8.9727 1.75-11.816 3.5-2.8438 8.7539-1.9688 11.598 1.5312l0.65625 0.65625c4.8125 4.375 17.723 6.7812 31.508 7 13.566 0 27.352-2.1875 33.695-6.7812l1.0938-1.0938c3.0625-3.5 8.3164-3.9375 11.816-0.875 3.5 2.8438 3.9375 8.3164 0.875 11.816-1.0938 1.3125-2.4062 2.4062-3.7188 3.5-9.4102 7-27.133 10.285-43.98 10.066-17.066-0.21875-34.352-3.9375-42.23-10.941-1.3125-1.0938-2.1875-1.9688-3.0625-3.0625zm114.87-120.56c-17.285-17.285-41.574-28.227-68.047-28.227-26.695 0-50.98 10.941-68.266 28.227-17.504 17.504-28.445 41.793-28.445 68.266 0 26.695 10.941 50.98 28.445 68.266 17.285 17.504 41.574 28.445 68.266 28.445 26.477 0 50.762-10.941 68.047-28.445 17.504-17.285 28.445-41.574 28.445-68.266 0-26.477-10.941-50.762-28.445-68.266z" fill="#fff"/>
</svg>
