<?xml version="1.0" encoding="UTF-8"?>
<svg width="512pt" height="512pt" version="1.1" viewBox="0 0 512 512" xmlns="http://www.w3.org/2000/svg">
 <path d="m347.51 402.41c-1.6562 0.61719-3.4609 0.95703-5.332 0.95703h-283.61c-14.41 0-27.527-5.9141-37.047-15.422-9.5625-9.5-15.477-22.641-15.477-37.102v-202.41c0-14.461 5.9102-27.602 15.414-37.105 9.5078-9.5078 22.648-15.414 37.105-15.414h315.29c14.461 0 27.602 5.9102 37.105 15.414 9.5078 9.5078 15.422 22.652 15.422 37.105v58.461c18.57 4.832 35.195 14.574 48.391 27.758 19.266 19.207 31.168 45.785 31.168 75.137v33.301c0 11.383-4.668 21.746-12.168 29.25l-0.058594 0.058593c-7.5039 7.5-17.871 12.168-29.25 12.168-11.383 0-21.738-4.668-29.25-12.168l-0.058594-0.058593c-4.2266-4.2266-7.5547-9.3672-9.6523-15.09-7.6875 4.207-16.504 6.6094-25.863 6.6094-14.887 0-28.391-6.0586-38.176-15.836l-0.058594-0.058593c-9.7773-9.7852-15.836-23.289-15.836-38.176 0-14.887 6.0586-28.391 15.836-38.176l0.058594-0.058594c9.7852-9.7773 23.289-15.836 38.176-15.836s28.391 6.0586 38.176 15.836l0.058594 0.058594c9.7773 9.7852 15.836 23.289 15.836 38.176h-0.007813v33.301c0 2.9648 1.2109 5.668 3.1367 7.6211 1.9531 1.9297 4.6484 3.1367 7.6211 3.1367 2.9648 0 5.668-1.2109 7.6211-3.1367 1.9297-1.9531 3.1367-4.6562 3.1367-7.6211v-33.301c0-20.871-8.4609-39.766-22.141-53.445-13.629-13.695-32.535-22.141-53.445-22.141-20.547 0-39.164 8.1523-52.738 21.379l-0.70703 0.76172c-13.68 13.68-22.141 32.578-22.141 53.445 0 20.871 8.4609 39.766 22.141 53.445 13.629 13.695 32.535 22.141 53.445 22.141 8.4766 0 15.359 6.8828 15.359 15.359 0 8.4766-6.8828 15.359-15.359 15.359-18.922 0-36.707-4.9766-52.129-13.684zm75.477-92.016v-0.60547h0.007813v-0.39844c-0.10938-6.3203-2.6953-12.012-6.8086-16.145-4.2227-4.2031-10.074-6.8086-16.547-6.8086-6.4688 0-12.324 2.6133-16.547 6.8086-4.1953 4.2227-6.8086 10.074-6.8086 16.547 0 6.4688 2.6055 12.324 6.8086 16.547 4.2227 4.1953 10.07 6.8086 16.547 6.8086 6.4688 0 12.324-2.6055 16.547-6.8086 4.0703-4.0898 6.6445-9.7109 6.8047-15.941zm-27.32-106.83v-55.129c0-1.1836-0.097657-2.3516-0.28516-3.4883l-169.3 137.84c-5.5078 4.6484-13.727 4.8789-19.527 0.16797l-169.5-138c-0.1875 1.1367-0.28516 2.2969-0.28516 3.4844v202.41c0 0.94922 0.058594 1.8945 0.17969 2.8125l98.613-85.598c6.3906-5.5352 16.066-4.832 21.602 1.5586 5.5352 6.3906 4.832 16.066-1.5586 21.602l-93.805 81.426h252.13c-12.953-17.59-20.598-39.332-20.598-62.855 0-1.1836 0.019531-2.3711 0.058594-3.5508-0.58203-0.38672-1.1367-0.80859-1.668-1.2891l-15.57-13.855c-6.3242-5.6289-6.8867-15.336-1.2578-21.66 5.6289-6.3242 15.336-6.8867 21.66-1.2578l3.8477 3.4219c5.3867-14 13.656-26.566 24.066-36.98l0.91406-0.83984c18.305-17.883 43.004-29.207 70.281-30.219zm-26.293-76.926h-306.31l153.15 124.7z" fill="#ecf5f9"/>
</svg>
