<?xml version="1.0" encoding="UTF-8"?>
<svg width="512pt" height="512pt" version="1.1" viewBox="0 0 512 512" xmlns="http://www.w3.org/2000/svg">
 <path d="m317.91 271.06h-16.738c-10.973 0-21.258-2.9336-30.117-8.0586v136.06c0 16.633 13.484 30.117 30.117 30.117h16.738c6.8477-30.176 33.836-52.707 66.086-52.707 37.426 0 67.766 30.34 67.766 67.766s-30.34 67.766-67.766 67.766c-32.25 0-59.238-22.527-66.086-52.707h-16.738c-33.266 0-60.234-26.969-60.234-60.234v-286.12c0-16.633-13.484-30.117-30.117-30.117h-16.738c-6.8477 30.176-33.836 52.707-66.086 52.707-37.426 0-67.766-30.34-67.766-67.766s30.34-67.766 67.766-67.766c32.25 0 59.238 22.527 66.086 52.707h16.738c33.266 0 60.234 26.969 60.234 60.234v97.883c0 16.633 13.484 30.117 30.117 30.117h16.738c6.8477-30.18 33.836-52.707 66.086-52.707 37.426 0 67.766 30.34 67.766 67.766s-30.34 67.766-67.766 67.766c-32.25 0-59.238-22.527-66.086-52.707zm-189.91-165.65c20.793 0 37.648-16.855 37.648-37.645 0-20.793-16.855-37.648-37.648-37.648s-37.648 16.855-37.648 37.648c0 20.789 16.855 37.645 37.648 37.645zm256 376.47c20.793 0 37.648-16.855 37.648-37.648 0-20.789-16.855-37.645-37.648-37.645s-37.648 16.855-37.648 37.645c0 20.793 16.855 37.648 37.648 37.648zm0-188.23c20.793 0 37.648-16.855 37.648-37.648s-16.855-37.648-37.648-37.648-37.648 16.855-37.648 37.648 16.855 37.648 37.648 37.648z" fill="#fff"/>
</svg>
