<?xml version="1.0" encoding="UTF-8"?>
<svg width="512pt" height="512pt" version="1.1" viewBox="0 0 512 512" xmlns="http://www.w3.org/2000/svg">
 <path d="m409.6 245.76c-2.5586 0-5.1211-1.0234-7.6797-2.5586l-145.92-109.57-145.92 109.57c-5.6328 4.0977-13.824 3.0703-17.922-2.5586-4.0977-5.6328-3.0703-13.824 2.5586-17.922l153.6-115.2c4.6094-3.5859 10.754-3.5859 15.359 0l153.6 115.2c5.6328 4.0977 6.6562 12.289 2.5586 17.922-2.5547 3.0703-6.6523 5.1211-10.234 5.1211zm-29.188 122.37v-101.89c0-7.168-5.6328-12.801-12.801-12.801s-12.801 5.6328-12.801 12.801v101.89c0 7.168-6.1445 13.312-13.312 13.312l-171 0.003906c-7.168 0-13.312-6.1445-13.312-13.312v-101.89c0-7.168-5.6328-12.801-12.801-12.801-7.168 0-12.801 5.6328-12.801 12.801v101.89c0 21.504 17.406 38.91 38.91 38.91h170.5c22.02 0.003906 39.426-17.402 39.426-38.906z" fill="#fff"/>
</svg>
