<?xml version="1.0" encoding="UTF-8"?>
<svg width="512pt" height="512pt" version="1.1" viewBox="0 0 512 512" xmlns="http://www.w3.org/2000/svg">
 <path d="m292.18 33.699c32.035 13.035 49.367 33.449 56.812 65.348 3.2461 13.594 4.043 13.824-5.2344 13.676-2.3359-0.042968-23.781-0.082031-26.121-0.082031-11.293 0-8.8438 2.7188-16.559-19.02-14.133-37.41-62.168-36.152-82.402-17.922-15 13.512-16.379 36.422 0.31641 50.918 19.641 17.051 41.793 31.254 63.172 46.238 20.234 14.188 41.824 26.59 61.133 41.906 36.84 29.219 34.301 95.477-9.0938 117.7-4.5117 2.1602-7.8047 4.1133-16.148 8.2383 5.2031 5.7539 11.133 11.547 15.523 16.078 35.555 36.68 24.141 98.195-22.758 118.28-37.227 15.945-74.891 15.469-110.93-3.8281-23.723-12.699-36.164-34.359-41.559-60.266-0.45703-2.207-0.60938-6.3906 0.10938-6.6289 9.793-3.2578 19.941-5.5859 29.762-8.2852 5.9688-1.6367 7.3203 6.6094 9.6445 10.996 5.7617 10.879 8.0039 15.203 18.688 25.727 21.738 21.418 66.559 19.242 83.262 3.5234 15.879-14.945 16.23-40.621-2.3711-55.723-22.059-17.914-46.371-33.023-69.434-49.73-21.477-15.555-44.066-29.992-63.543-47.805-34.633-31.656-26.809-92.539 19.836-116.39 2.3516-1.1992 2.3516-1.1992 8.2383-4.6172-3.6602-4.9922-7.3516-10.082-10.641-14.402-32.582-42.887-14.711-96.922 36.434-114.83 43.109-15.094 73.867 0.90234 73.867 0.90234zm38.18 244.91c-2.2734-17.492-13.594-31.324-28.289-41.711-26.316-18.602-53.52-35.949-80.629-53.375-2.8828-1.8516-8.6484-2.4766-11.367-0.83984-37.57 22.68-39.516 56.508-9.2383 79.273 28.305 21.273 58.859 39.566 88.633 58.844 2.6719 1.7305 7.2148 2.2422 10.305 1.3398 14.98-4.3867 30.715-26.438 30.586-43.531z" fill="#fff" fill-rule="evenodd"/>
</svg>
