<?xml version="1.0" encoding="UTF-8"?>
<svg width="512pt" height="512pt" version="1.1" viewBox="0 0 512 512" xmlns="http://www.w3.org/2000/svg">
 <path d="m358.4 24h-204.8c-71.203 0-129.6 58.398-129.6 129.6v204.8c0 71.199 58.398 129.6 129.6 129.6h204.8c71.199 0 129.6-58.398 129.6-129.6v-204.8c0-71.203-58.398-129.6-129.6-129.6zm-204.8 16h204.8c62.398 0 113.6 51.199 113.6 113.6v94.398h-68c-0.80078-22.398-7.1992-44-18.398-63.199 11.199-1.6016 22.398-6.3984 30.398-14.398 20-20 20-53.602 0-73.602s-53.602-20-73.602 0c-8 8-13.602 19.199-14.398 30.398-21.602-12-46.398-18.398-71.199-18.398-79.199 0-143.2 62.398-147.2 140h-69.602v-95.199c0-62.402 51.199-113.6 113.6-113.6zm175.2 105.6c2.3984 8.8008 7.1992 16.801 13.602 24 6.3984 6.3984 15.199 11.199 24 13.602 14.398 21.602 21.602 46.398 21.602 72.801 0 72.801-59.199 132-132 132-72.805-0.003906-132-59.203-132-132s59.199-132 132-132c26.398 0 51.199 8 72.801 21.602zm76 12.797c-7.1992 7.1992-16 10.398-25.602 10.398-9.6016 0-18.398-4-25.602-10.398-7.1992-7.1992-10.398-16-10.398-25.602s4-18.398 10.398-25.602c7.1992-7.1992 16-10.398 25.602-10.398 9.6016 0 18.398 3.1992 25.602 10.398 13.598 14.406 13.598 37.605 0 51.203zm-46.402 313.6h-204.8c-62.402 0-113.6-51.199-113.6-113.6v-94.398h68.801c4 77.602 68.801 140 147.2 140s143.2-62.398 147.2-140h68.801v94.398c0 62.402-51.199 113.6-113.6 113.6zm-218.4-216c0 64 52 116 116 116s116-52 116-116-52-116-116-116-116 52-116 116zm216 0c0 55.199-44.801 100-100 100s-100-44.801-100-100 44.801-100 100-100 100 44.801 100 100zm-136.8 10.398c-14.398 0-26.398 12-26.398 26.398s12 26.398 26.398 26.398c14.398 0 26.398-12 26.398-26.398 0.003906-14.398-11.996-26.398-26.398-26.398zm0 36.801c-5.6016 0-10.398-4.8008-10.398-10.398 0-5.6016 4.8008-10.398 10.398-10.398 5.6016 0 10.398 4.8008 10.398 10.398 0.003906 5.5977-4.7969 10.398-10.398 10.398z" fill="#fff"/>
</svg>
