<?xml version="1.0" encoding="UTF-8"?>
<svg width="512pt" height="512pt" version="1.1" viewBox="0 0 512 512" xmlns="http://www.w3.org/2000/svg">
 <g fill="#fff">
  <path d="m289.96 165.81c-8.3867-2.9102-17.109-4.7266-25.961-5.4023v31.594h37.465c-3.2383-8.9805-7.082-17.73-11.504-26.191z"/>
  <path d="m199.2 177.01c-6.5664 4.3008-12.629 9.332-18.07 14.992h12.406c1.6641-5.0469 3.5859-10.039 5.6641-14.992z"/>
  <path d="m181.95 272h-29.539c1.2969 17.09 6.832 33.586 16.098 48h20.297c-4-15.707-6.2969-31.801-6.8555-48z"/>
  <path d="m188.8 208h-20.297c-9.2656 14.414-14.801 30.91-16.098 48h29.539c0.55859-16.199 2.8555-32.293 6.8555-48z"/>
  <path d="m306.55 208h-42.551v48h49.969c-0.625-16.23-3.1133-32.336-7.418-48z"/>
  <path d="m384 112h28.688l-36.688-36.688v28.688c0 2.1211 0.84375 4.1562 2.3438 5.6562s3.5352 2.3438 5.6562 2.3438z"/>
  <path d="m329.97 256h29.602-0.003906c-1.2969-17.09-6.8281-33.586-16.094-48h-20.273c3.9609 15.715 6.2305 31.805 6.7695 48z"/>
  <path d="m330.87 192c-5.4453-5.668-11.508-10.703-18.078-15.016 2.0391 4.9453 3.9375 9.9453 5.6016 15.016z"/>
  <path d="m72 128c-6.3594 0.015625-12.457 2.5469-16.953 7.0469-4.5 4.4961-7.0312 10.594-7.0469 16.953v248h24z"/>
  <path d="m338.34 338.34c3.125-3.1211 8.1875-3.1211 11.312 0l26.344 26.344 12.688-12.688-26.344-26.344c-3.1211-3.125-3.1211-8.1875 0-11.312l4.4336-4.4414-37.602-4.6953 4.6953 37.602z"/>
  <path d="m213.66 410.34c3.6133 3.6328 8.5312 5.668 13.656 5.6562h57.375c5.125 0.011719 10.043-2.0234 13.656-5.6562 6.6055-6.6445 15.598-10.371 24.969-10.344h100.69v-272h-40c-6.3633 0-12.469-2.5273-16.969-7.0312-4.5039-4.5-7.0312-10.605-7.0312-16.969v-40h-248c-6.3633 0-12.469 2.5273-16.969 7.0312-4.5039 4.5-7.0312 10.605-7.0312 16.969v312h100.69c9.3711-0.027344 18.363 3.6992 24.969 10.344zm171.34-114.28c3.0352 0.37891 5.5859 2.4531 6.5781 5.3438 0.99219 2.8945 0.25 6.0977-1.9141 8.2578l-10.344 10.336 26.344 26.344c3.1211 3.125 3.1211 8.1875 0 11.312l-24 24c-3.125 3.1211-8.1875 3.1211-11.312 0l-26.344-26.344-10.344 10.344c-2.1602 2.1641-5.3633 2.9062-8.2578 1.9141-2.8906-0.99219-4.9648-3.543-5.3438-6.5781l-8-64c-0.30469-2.4492 0.53516-4.9023 2.2812-6.6484 1.7539-1.7344 4.1992-2.5742 6.6484-2.2812zm-208.99-216.06h16v16h-16zm-32 0h16v16h-16zm-32 0h16v16h-16zm0 32h232v16h-232zm24 152c0-42.871 22.871-82.488 60-103.92 37.129-21.438 82.871-21.438 120 0 37.129 21.434 60 61.051 60 103.92 0 2.8711-0.10547 5.7422-0.30469 8.5664l-8-0.56641h-103.7v48h32v16h-32v31.559c12.676-0.90234 25.074-4.1562 36.559-9.5977l6.8789 14.457 0.003906-0.003907c-16.066 7.6641-33.645 11.625-51.441 11.586-31.816-0.035156-62.316-12.691-84.812-35.188s-35.152-52.996-35.188-84.812z"/>
  <path d="m440 416h-116.69c-5.125-0.011719-10.043 2.0234-13.656 5.6562-6.5977 6.6367-15.578 10.359-24.938 10.344h-57.438c-9.3594 0.015625-18.34-3.707-24.938-10.344-3.6133-3.6328-8.5312-5.668-13.656-5.6562h-156.69v16c0 4.2422 1.6875 8.3125 4.6875 11.312s7.0703 4.6875 11.312 4.6875h416c4.2422 0 8.3125-1.6875 11.312-4.6875s4.6875-7.0703 4.6875-11.312v-16z"/>
  <path d="m464 400v-248c-0.015625-6.3594-2.5469-12.457-7.0469-16.953-4.4961-4.5-10.594-7.0312-16.953-7.0469v272z"/>
  <path d="m205.39 320h42.609v-48h-50.047c0.61719 16.234 3.1172 32.34 7.4375 48z"/>
  <path d="m181.13 336c5.4414 5.6602 11.504 10.691 18.07 14.992-2.0547-4.9531-3.9531-9.9453-5.6016-14.992z"/>
  <path d="m222.04 362.19c8.3867 2.9102 17.109 4.7266 25.961 5.4023v-31.594h-37.504c3.2578 8.9805 7.1133 17.73 11.543 26.191z"/>
  <path d="m197.95 256h50.047v-48h-42.609c-4.3203 15.66-6.8203 31.766-7.4375 48z"/>
  <path d="m210.5 192h37.504v-31.594c-8.8516 0.67578-17.574 2.4922-25.961 5.4023-4.4297 8.4609-8.2852 17.211-11.543 26.191z"/>
 </g>
</svg>
