<?xml version="1.0" encoding="UTF-8"?>
<svg width="512pt" height="512pt" version="1.1" viewBox="0 0 512 512" xmlns="http://www.w3.org/2000/svg">
 <g fill="#fff">
  <path d="m213.47 132.55c-15.668 4.9922-35.477 4.4609-54.629 3.9883-11.621-0.31641-23.641-0.625-34.406 0.36328-19.051 1.7461-38.734 0.83984-57.77-0.015625-11.09-0.5-22.555-1.0156-33.824-1.0156-2.0781-0.003906-3.6562 0.99219-4.625 2.4375-0.94141 0.71094-1.7188 1.6484-2.0547 2.8711-2.082 7.5273 1.8906 18.223 7.3008 31.422 1.2383 3.0312 2.3711 5.7734 3.1016 7.9297 3.1641 9.332 7.1367 18.492 10.98 27.359 2.9297 6.7539 5.9609 13.73 8.5664 20.66 2.082 5.5508 4.0195 11.621 6.0039 17.844 4.8281 15.141 9.8242 30.793 17.859 42.789 0.92188 1.3828 2.4219 2.2773 4.0742 2.4375 0.17969 0.019531 0.36328 0.03125 0.54297 0.03125 1.4648 0 2.8828-0.57812 3.9258-1.6289 7.3516-7.3516 12.758-17.152 17.992-26.625 2.625-4.7617 5.1445-9.2227 7.8047-13.309 7.0664 6.0469 13.32 19.559 18.426 30.676 2.5352 5.5312 4.9258 10.746 7.3203 14.941 1.0039 1.7578 2.8633 2.8047 4.8281 2.8047 0.37891 0 0.76172-0.035157 1.1484-0.12109 0.9375-0.19922 1.7422-0.67578 2.4336-1.2695 2.4062-1.0195 3.8945-3.5312 3.3281-6.1797-0.19922-0.92578-0.44531-1.9336-0.66016-2.8867 0.89062-6.918 2.0156-13.863 3.1992-20.633 0.99219-5.707 1.9922-11.418 2.8164-17.152 1.0859-7.4805 1.4844-15.426 1.8789-23.113 0.55859-10.977 1.1328-22.324 3.7109-32.055 3.6211-13.66 19.184-24.863 34.238-35.695 8.2422-5.9336 16.027-11.535 22.102-17.645 1.8086-1.8164 2.1406-4.6328 0.80469-6.8164-1.332-2.1797-3.9922-3.1602-6.418-2.3945zm-107.44 109.83c-3.2969 4.8672-6.3242 10.348-9.2461 15.648-3.5586 6.4453-7.2031 13.047-11.352 18.574-5.1562-9.8398-8.9961-21.871-12.727-33.582-2.043-6.4062-4.043-12.66-6.1914-18.379-2.707-7.1836-5.7891-14.289-8.7773-21.172-3.7578-8.6484-7.6406-17.598-10.648-26.492-0.78906-2.3359-2-5.3047-3.3477-8.582-1.875-4.5703-4.5117-11.039-5.9766-16.375 4.2383 2.3281 8.5547 4.5352 12.965 6.5742 8.0703 5.043 16.199 11.117 22.969 16.184l3.4102 2.543c7.6641 5.7031 16.266 10.613 24.586 15.375 8.8672 5.0703 17.98 10.285 25.836 16.406-0.054687 0.19531-0.14453 0.375-0.17969 0.57422-3.5625 5.2852-7.0469 10.707-10.441 16.004-3.5781 5.6055-7.168 11.223-10.879 16.699zm38.309 17.391c-3.8281-16.145-7.0586-32.805-6.1523-46.199 0.5-0.73047 1-1.5039 1.5-2.2266 1.6211-2.3281 1.2383-5.5-0.89453-7.3672-9.4727-8.2773-20.699-14.703-31.57-20.922-4.3398-2.4844-8.5391-4.8984-12.586-7.3828l8.7617 3.1133c4.7734 1.7109 10.793 2.9062 17.168 4.168 10.812 2.1523 24.273 4.8164 29.016 10.293 0.54687 0.625 1.2031 1.1016 1.9219 1.418-2.375 10.211-3.0117 21.223-3.5586 31.938-0.39453 7.7734-0.76953 15.113-1.7773 22.082-0.53906 3.707-1.1992 7.3945-1.8281 11.086zm-23.953-19.059c1.9609-3.0156 3.9531-6.0039 5.8945-9.0352 0.41406-0.64453 0.84375-1.3047 1.2578-1.957 0.8125 7.8984 2.3008 16.117 4.0977 24.32-3.3242-5.4023-7.0352-10.047-11.25-13.328zm70.109-90.328c-13.773 9.9141-27.816 20.152-34.922 33.297-7.8047-6.6094-21.008-9.2773-32.844-11.629-5.9609-1.1875-11.586-2.3008-15.586-3.7344l-9.2773-3.293c-14.094-4.9766-28.535-10.102-42.152-16.379-0.62891-0.39062-1.2578-0.78906-1.8906-1.1641 4.1328 0.16016 8.2695 0.32812 12.328 0.50781 19.414 0.87891 39.477 1.7734 59.281-0.019531 10.121-0.91016 21.293-0.63672 33.109-0.32812 12.141 0.3125 24.535 0.64453 36.285-0.39062-1.418 1.0391-2.8672 2.0898-4.332 3.1328z"/>
  <path d="m332.73 214.55c-8.3867-6.6719-19.273-9.4766-32.168-7.8945-3.0469 0.375-5.207 3.1523-4.8281 6.1992 0.37891 3.0469 3.1445 5.2188 6.1992 4.8281 9.7891-1.2227 17.758 0.69531 23.871 5.5664 1.0234 0.80859 2.2461 1.207 3.4609 1.207 1.6328 0 3.25-0.71875 4.3516-2.0977 1.9062-2.3945 1.5117-5.8984-0.88672-7.8086z"/>
  <path d="m317.51 292.98c-6.6289 5.6172-14.703 9.9648-24.008 12.934-2.9219 0.93359-4.5352 4.0586-3.6055 6.9883 0.75391 2.3594 2.9375 3.8672 5.293 3.8672 0.55859 0 1.125-0.085937 1.6914-0.26172 10.699-3.4219 20.059-8.4805 27.812-15.043 2.3398-1.9805 2.6328-5.4922 0.64453-7.8281-1.9766-2.3516-5.4727-2.6367-7.8281-0.65625z"/>
  <path d="m365.53 362.15c-7.7422-2.1133-15.305-4.7773-22.477-7.9141l-4.5352-1.9961c-2.8125-1.25-6.0859 0.015624-7.332 2.832-1.2461 2.8047 0.019531 6.0859 2.832 7.332l4.5781 2.0117c7.6641 3.3633 15.742 6.2109 24.008 8.4688 0.49219 0.12891 0.98438 0.19531 1.4688 0.19531 2.4414 0 4.6797-1.6211 5.3594-4.0977 0.80078-2.9648-0.94141-6.0234-3.9023-6.832z"/>
  <path d="m333.34 271.44c-1.168 2.8359 0.17969 6.0859 3.0156 7.2617 0.69531 0.28125 1.4141 0.41797 2.1133 0.41797 2.1875 0 4.2539-1.2969 5.1406-3.4336 3.2422-7.8477 4.9492-16.348 4.9492-24.562 0-2.4688-0.15234-4.8984-0.44922-7.2695-0.38281-3.0469-3.168-5.1797-6.2109-4.8164-3.0469 0.38281-5.2031 3.1641-4.8164 6.2109 0.24219 1.9258 0.36328 3.8906 0.36328 5.8828 0.007813 6.7617-1.4141 13.785-4.1055 20.309z"/>
  <path d="m486.1 361.43c-0.99219-2.9023-4.1484-4.4648-7.0508-3.4648-8.9961 3.0664-18.371 5.5078-27.875 7.2656-3.0156 0.55859-5.0117 3.4492-4.4531 6.4766 0.49219 2.6719 2.832 4.5469 5.457 4.5469 0.33984 0 0.67578-0.03125 1.0195-0.09375 10.031-1.8516 19.938-4.4336 29.434-7.668 2.9023-1 4.457-4.1523 3.4688-7.0625z"/>
  <path d="m422.53 368.43c-9.6914 0.36719-19.422 0.054687-28.781-0.96094-3.0664-0.36328-5.7891 1.8789-6.125 4.9258-0.32812 3.0508 1.875 5.7969 4.9258 6.1289 7.1836 0.77344 14.586 1.1719 22.004 1.1758 2.8008 0 5.6055-0.054687 8.4062-0.17578 3.0664-0.11719 5.457-2.707 5.3359-5.7734-0.11719-3.0664-2.6758-5.6016-5.7656-5.3203z"/>
  <path d="m312.21 339.53c-9.4922-5.1445-17.379-10.219-24.105-15.523-2.4102-1.9062-5.9023-1.4883-7.8047 0.92578-1.8984 2.4102-1.4844 5.9023 0.92188 7.8047 7.2344 5.7031 15.637 11.121 25.699 16.562 0.83984 0.45703 1.7461 0.67188 2.6406 0.67188 1.9727 0 3.8867-1.0547 4.8906-2.9062 1.4648-2.7031 0.46094-6.0742-2.2422-7.5352z"/>
  <path d="m268.25 310.94c1.957-1.7812 2.4102-4.7578 0.95312-7.0703-4.7773-7.5781-7.3438-15.621-7.6172-23.887l-0.027344-1.1875c-0.054688-3.043-2.5352-5.4648-5.5547-5.4648h-0.10156c-3.0664 0.054687-5.5156 2.5859-5.457 5.6523l0.03125 1.3242c0.33984 10.305 3.4766 20.223 9.3242 29.496 0.16797 0.26562 0.35937 0.52344 0.5625 0.74609-7.5938-0.070313-15.258-0.82031-22.816-2.2109-3.0312-0.59766-5.918 1.4336-6.4766 4.4492-0.5625 3.0156 1.4336 5.918 4.4492 6.4766 8.6289 1.5977 17.395 2.4102 26.055 2.4102 1.5469 0 3.0977-0.019531 4.6445-0.070313 3.0664-0.10937 5.4688-2.6797 5.3672-5.7461-0.070313-2.2188-1.4336-4.0898-3.3359-4.918z"/>
  <path d="m210.49 300.5c-9.6094-4.5-14.961-10.047-16.367-16.934-0.62109-3.0039-3.5781-4.9492-6.5547-4.3281-3.0039 0.60937-4.9492 3.5469-4.3359 6.5547 2.1289 10.418 9.7109 18.754 22.539 24.762 0.76172 0.36328 1.5664 0.52734 2.3555 0.52734 2.0898 0 4.0898-1.1758 5.0391-3.1992 1.3047-2.7773 0.10547-6.0898-2.6758-7.3828z"/>
  <path d="m278.87 220.54c-2.1289-2.2266-5.6523-2.293-7.8555-0.17578-7.3281 7.0039-12.836 16.297-16.363 27.613-0.91797 2.9297 0.72266 6.0508 3.6445 6.9648 0.55469 0.17578 1.1094 0.25 1.6602 0.25 2.3711 0 4.5625-1.5195 5.3047-3.9023 2.9648-9.5039 7.4844-17.207 13.434-22.898 2.2188-2.1172 2.293-5.6328 0.17578-7.8516z"/>
 </g>
</svg>
