<?xml version="1.0" encoding="UTF-8"?>
<svg width="512pt" height="512pt" version="1.1" viewBox="0 0 512 512" xmlns="http://www.w3.org/2000/svg">
 <g fill="#fff">
  <path d="m510.89 200.61s-46.191-137.89-46.219-137.97c-1.9297-5.4219-5.9023-9.8711-11.07-12.398-5.1719-2.5273-11.125-2.9336-16.586-1.125l-246.04 82.812c-5.4766 1.8203-10.012 5.7344-12.613 10.887-2.6016 5.1523-3.0547 11.125-1.2656 16.613 0 0 46.191 137.84 46.227 137.95 1.9219 5.4219 5.8945 9.875 11.059 12.406 5.168 2.5312 11.117 2.9414 16.582 1.1406l21.027-7.0742s0.074219-16.535 0.089844-16.922l-19.125 6.4375 62.691-93.172 23.805 8.1562c4.5078 1.2812 9.2969 1.1875 13.75-0.26953 4.4531-1.457 8.3711-4.2109 11.25-7.9102 0.15234-0.19531 14.309-21.215 14.309-21.215l106.08 36.363-96.312 32.418c1.9141 5.0547 3.0273 10.379 3.3008 15.777l105.18-35.402c5.4766-1.8203 10.012-5.7344 12.613-10.887s3.0586-11.125 1.2695-16.613zm-273.76 87.605-43.512-129.85 106.36 36.449zm114.71-97.914c-1.6836 2.4062-4.6797 3.5195-7.5273 2.7969l-141.16-48.383 231.88-78.043zm36.172-25.094 62.848-93.398 43.508 129.86z"/>
  <path d="m86.184 446.23 79.031-116.08 29.656 10.266c5.1016 1.4609 10.523 1.3672 15.574-0.26953 5.0469-1.6328 9.4922-4.7383 12.77-8.9141 0.15234-0.17969 4.6602-6.7773 4.6602-6.7773-4.8984-2.2852-9.2461-5.5977-12.746-9.7109l-4.4883 6.5859c-2.4727 3.4102-6.7969 4.9453-10.867 3.8555l-173.67-60.141 152.6-50.508-5.082-15.172-156.62 51.836c-6.1797 2.0078-11.312 6.3867-14.273 12.172-2.957 5.7891-3.5039 12.512-1.5117 18.699 0 0 54.789 165.26 54.828 165.38 2.1602 6.1055 6.6211 11.125 12.43 13.984 5.8086 2.8633 12.504 3.3398 18.66 1.332l227.48-75.293c-6.6523-2.5859-12.844-6.2305-18.336-10.785zm-15.543-5.6094-53.641-161.79 132.55 45.898z"/>
  <path d="m384 280.03h-8v-13.848c0.042969-9.5742-3.7305-18.773-10.488-25.559-6.7539-6.7891-15.938-10.602-25.512-10.602s-18.758 3.8125-25.512 10.602c-6.7578 6.7852-10.531 15.984-10.488 25.559v13.848h-8c-4.418 0-8 3.582-8 8v36.664c-0.097656 13.5 5.1602 26.484 14.625 36.109 9.4609 9.6289 22.355 15.105 35.855 15.238h3.0391c13.5-0.13281 26.395-5.6094 35.855-15.238 9.4648-9.625 14.723-22.609 14.625-36.109v-36.664c0-4.418-3.582-8-8-8zm-64-13.848c-0.042969-5.332 2.0469-10.461 5.8008-14.246 3.7539-3.7852 8.8672-5.9141 14.199-5.9141s10.445 2.1289 14.199 5.9141c3.7539 3.7852 5.8438 8.9141 5.8008 14.246v13.848h-40zm56 58.512c0.10156 9.2578-3.4688 18.176-9.9336 24.801s-15.293 10.418-24.547 10.543h-3.0391c-9.2539-0.125-18.082-3.918-24.547-10.543s-10.035-15.543-9.9336-24.801v-28.66h72z"/>
  <path d="m348 332.03c0 4.4219-3.582 8-8 8s-8-3.5781-8-8c0-4.418 3.582-8 8-8s8 3.582 8 8"/>
  <path d="m92 195.99c1.9766 0.03125 36.984-11.859 38.531-12.383 4.1914-1.3984 6.457-5.9297 5.0586-10.121-1.3945-4.1953-5.9297-6.4609-10.121-5.0625l-36 12.004c-2.0117 0.67188-3.6758 2.1133-4.625 4.0117s-1.1055 4.0977-0.43359 6.1094c1.1523 3.2148 4.1758 5.3828 7.5898 5.4414z"/>
  <path d="m461.31 282.49-28 10c-4.1602 1.4883-6.3242 6.0664-4.8438 10.227 1.5273 4.125 6.0664 6.2773 10.227 4.8477l28-10.004c4.1602-1.4883 6.332-6.0664 4.8438-10.227-1.4883-4.1602-6.0664-6.332-10.227-4.8438z"/>
 </g>
</svg>
