<?xml version="1.0" encoding="UTF-8"?>
<svg width="512pt" height="512pt" version="1.1" viewBox="0 0 512 512" xmlns="http://www.w3.org/2000/svg">
 <path d="m429.74 82.254c-46.414-46.41-108.12-71.973-173.75-71.973-65.633 0-127.34 25.559-173.75 71.973-40.484 40.484-65.668 94.133-70.918 151.05-4.9414 53.605 7.9062 107.59 36.238 152.91l-35.246 94.336c-2.0391 5.4531-0.70312 11.598 3.4141 15.715 4.1172 4.1172 10.254 5.4531 15.715 3.4141l94.336-35.246c38.973 24.371 84.352 37.289 130.39 37.289 7.4961 0 15.016-0.34375 22.523-1.0352 56.93-5.2422 110.58-30.438 151.05-70.934 46.414-46.414 71.973-108.12 71.973-173.75 0-65.629-25.559-127.34-71.973-173.75zm-21.02 326.48c-41.691 41.707-97.152 63.215-152.99 63.211-41.609 0-83.43-11.957-119.88-36.398-2.4844-1.6641-5.3711-2.5195-8.2773-2.5195-1.75 0-3.5117 0.3125-5.2031 0.94141l-70.805 26.453 26.453-70.805c1.6758-4.4844 1.0898-9.5039-1.5781-13.48-57.234-85.332-45.961-200.09 26.816-272.87 84.219-84.215 221.25-84.215 305.46 0 84.215 84.219 84.215 221.25 0 305.46zm-65.434-142.65c-5.8945-5.8945-13.73-9.1328-22.082-9.1328-8.3516 0-16.188 3.2461-22.082 9.1328l-13.48 13.48c-5.3203-2.6406-16-9.8516-29.672-23.527-13.688-13.688-20.891-24.371-23.527-29.68l13.465-13.492c5.8945-5.8945 9.1328-13.73 9.1328-22.082s-3.2461-16.188-9.1289-22.078l-36.348-36.379c-5.8945-5.8945-13.738-9.1328-22.094-9.1328-8.3555 0-16.203 3.2461-22.102 9.1406l-26.902 26.93c-37.613 37.613-0.64062 108.26 52.684 161.58 38.211 38.211 85.309 68.023 122.77 68.023 14.824 0 28.133-4.6641 38.793-15.324l26.938-26.938c12.176-12.176 12.176-31.984 0-44.16l-36.371-36.371zm15.355 59.516-26.938 26.938c-18.738 18.738-71.238-4.4141-119.53-52.699-48.293-48.285-71.434-100.8-52.68-119.55l26.902-26.93c0.28516-0.28516 0.64453-0.42969 1.0742-0.42969 0.42969 0 0.79297 0.14453 1.0703 0.42578l36.348 36.379c0.57422 0.57812 0.57422 1.5508-0.011719 2.1367l-17.461 17.488c-8.5547 8.5547-7.7734 21.07 2.3242 37.188 5.7617 9.1953 14.715 20.035 25.207 30.527 10.484 10.484 21.324 19.434 30.52 25.199 16.117 10.105 28.621 10.891 37.176 2.3398l17.5-17.5c0.57812-0.57422 1.5508-0.57422 2.125 0l36.371 36.371c0.28516 0.28516 0.42969 0.64062 0.42969 1.0664s-0.14453 0.77734-0.42969 1.0664z" fill="#08090a"/>
</svg>
